# xmcd
#
# Track frame offsets: 
#        182
#        13456
#        26685
#        41300
#        55364
#        68277
#        82843
#        96299
#        109706
#        124955
#        136941
#        149193
#        163387
#        175712
#        189879
#        203997
#        216289
#        229267
#
# Disc length: 3229 seconds
#
# Revision: 3
# Processed by: cddbd v1.5.2PL0 Copyright (c) Steve Scherf et al.
# Submitted via: ExactAudioCopyFreeDBPlugin 1.0
#
DISCID=040c9b12
DTITLE=Various Artist - Roots of Rhythm and Blues, 1939-1945
DYEAR=1996
DGENRE=Rhythm and Blues
TTITLE0=Rubberlegs Williams with Clyde Hart's All Stars - That's the B
TTITLE0=lues
TTITLE1=Gatemouth Moore with Dallas Bartley and His Small Town Boys - 
TTITLE1=I Ain't Made at You
TTITLE2=Lionel Hampton and His Orchestra - Flyin' Home
TTITLE3=Pete Johnson's Band - 627 Stomp
TTITLE4=Hot Lips Page and His Orchestra - Sunset Blues
TTITLE5=June Richmond with Andy Kirk and His Clouds of Joy - 47th Jive
TTITLE6=Walter Brown with Jay MacShann Quartet - New Confessin' the Bl
TTITLE6=ues
TTITLE7=Johnny Hodges and His Orchestra - Dooji Wooji
TTITLE8=Erskine Hawkins and His Orchestra featuring Avery Parrish - Af
TTITLE8=ter Hours
TTITLE9=Rosetta Tharpe with Lucky Millinder and His Orchestra - That's
TTITLE9=All
TTITLE10=Jack McVea - Bartender Boogie
TTITLE11=Billy Eckstine and His Orchestra - Blowin' the Blues Away
TTITLE12=Tiny Bradshaw and His Orchestra - School Days Blues
TTITLE13=Johnny Otis, His Drums and Orchestra - Harlem Nocturne
TTITLE14=Ella Johnson with Buddy Johnson and His Orchestra - That's th
TTITLE14=e Stuff You Gotta Watch
TTITLE15=The Spirits of Rhythm - Dr. Watson and Mr. Holmes
TTITLE16=The 5 Red Caps - Boogie Woogie on a Saturday Night
TTITLE17=Sister Rosetta Tharpe - Strange Things Happening Every Day
EXTD=YEAR: 1996
EXTT0=
EXTT1=
EXTT2=
EXTT3=
EXTT4=
EXTT5=
EXTT6=
EXTT7=
EXTT8=
EXTT9=
EXTT10=
EXTT11=
EXTT12=
EXTT13=
EXTT14=
EXTT15=
EXTT16=
EXTT17=
PLAYORDER=
